<svg xmlns="http://www.w3.org/2000/svg" xmlns:xlink="http://www.w3.org/1999/xlink" width="500" zoomAndPan="magnify" viewBox="0 0 375 374.999991" height="500" preserveAspectRatio="xMidYMid meet" version="1.0"><defs><g/><clipPath id="id1"><path d="M 191 99.207031 L 216 99.207031 L 216 214.707031 L 191 214.707031 Z M 191 99.207031 " clip-rule="nonzero"/></clipPath><clipPath id="id2"><path d="M 201 116 L 256.535156 116 L 256.535156 214.707031 L 201 214.707031 Z M 201 116 " clip-rule="nonzero"/></clipPath><clipPath id="id3"><path d="M 159 99.207031 L 195 99.207031 L 195 214.707031 L 159 214.707031 Z M 159 99.207031 " clip-rule="nonzero"/></clipPath><clipPath id="id4"><path d="M 119 116 L 174 116 L 174 214.707031 L 119 214.707031 Z M 119 116 " clip-rule="nonzero"/></clipPath></defs><rect x="-37.5" width="450" fill="#ffffff" y="-37.499999" height="449.999989" fill-opacity="1"/><rect x="-37.5" width="450" fill="#ffffff" y="-37.499999" height="449.999989" fill-opacity="1"/><rect x="-37.5" width="450" fill="#ffffff" y="-37.499999" height="449.999989" fill-opacity="1"/><rect x="-37.5" width="450" fill="#ffffff" y="-37.499999" height="449.999989" fill-opacity="1"/><g clip-path="url(#id1)"><path fill="#95bda6" d="M 203.582031 106.792969 C 203.582031 104.359375 205.550781 102.382812 207.980469 102.382812 C 210.410156 102.382812 212.378906 104.359375 212.378906 106.792969 C 212.378906 109.230469 210.410156 111.203125 207.980469 111.203125 C 205.550781 111.203125 203.582031 109.230469 203.582031 106.792969 Z M 209.910156 113.667969 C 213.179688 112.746094 215.5 109.558594 215.054688 105.894531 C 214.660156 102.65625 212.039062 100.058594 208.804688 99.695312 C 204.5 99.210938 200.851562 102.574219 200.851562 106.792969 C 200.851562 109.949219 202.894531 112.625 205.726562 113.570312 L 205.726562 152.601562 L 191.792969 166.566406 L 191.792969 212.609375 C 191.792969 213.765625 192.730469 214.707031 193.882812 214.707031 C 195.039062 214.707031 195.976562 213.765625 195.976562 212.609375 L 195.976562 168.304688 L 209.910156 154.339844 L 209.910156 113.667969 " fill-opacity="1" fill-rule="nonzero"/></g><g clip-path="url(#id2)"><path fill="#54afe6" d="M 248.929688 157.230469 C 246.5 157.230469 244.53125 155.257812 244.53125 152.820312 C 244.53125 150.386719 246.5 148.414062 248.929688 148.414062 C 251.359375 148.414062 253.332031 150.386719 253.332031 152.820312 C 253.332031 155.257812 251.359375 157.230469 248.929688 157.230469 Z M 224.046875 128.417969 C 221.617188 128.417969 219.648438 126.445312 219.648438 124.007812 C 219.648438 121.574219 221.617188 119.597656 224.046875 119.597656 C 226.476562 119.597656 228.449219 121.574219 228.449219 124.007812 C 228.449219 126.445312 226.476562 128.417969 224.046875 128.417969 Z M 228.449219 159.96875 C 230.878906 159.96875 232.847656 161.941406 232.847656 164.378906 C 232.847656 166.8125 230.878906 168.789062 228.449219 168.789062 C 226.015625 168.789062 224.046875 166.8125 224.046875 164.378906 C 224.046875 161.941406 226.015625 159.96875 228.449219 159.96875 Z M 249.585938 145.707031 C 246.230469 145.40625 243.316406 147.4375 242.242188 150.367188 L 226.179688 150.367188 L 226.179688 130.828125 C 229.242188 129.867188 231.417969 126.890625 231.15625 123.449219 C 230.898438 120.066406 228.222656 117.28125 224.859375 116.90625 C 220.558594 116.429688 216.917969 119.792969 216.917969 124.007812 C 216.917969 127.238281 219.058594 129.964844 221.996094 130.851562 L 221.996094 151.59375 L 201.421875 172.21875 L 201.421875 212.609375 C 201.421875 213.765625 202.359375 214.707031 203.511719 214.707031 C 204.667969 214.707031 205.601562 213.765625 205.601562 212.609375 L 205.601562 175.179688 L 220.519531 175.179688 L 225.039062 170.652344 C 226.113281 171.242188 227.355469 171.5625 228.679688 171.519531 C 232.5 171.398438 235.597656 168.164062 235.578125 164.332031 C 235.550781 160.445312 232.429688 157.292969 228.558594 157.234375 C 224.753906 157.175781 221.503906 160.226562 221.328125 164.039062 C 221.265625 165.347656 221.5625 166.578125 222.117188 167.652344 L 218.789062 170.988281 L 208.5625 170.988281 L 224.953125 154.558594 L 242.023438 154.558594 C 242.796875 157.664062 245.59375 159.96875 248.929688 159.96875 C 253.136719 159.96875 256.496094 156.316406 256.015625 152 C 255.644531 148.667969 252.917969 146.003906 249.585938 145.707031 " fill-opacity="1" fill-rule="nonzero"/></g><g clip-path="url(#id3)"><path fill="#54afe6" d="M 189.925781 132.5625 C 187.894531 133.898438 185.167969 133.332031 183.835938 131.296875 C 182.5 129.257812 183.066406 126.527344 185.097656 125.1875 C 187.128906 123.851562 189.859375 124.421875 191.191406 126.457031 C 192.523438 128.492188 191.957031 131.226562 189.925781 132.5625 Z M 162.6875 106.792969 C 162.6875 104.359375 164.65625 102.382812 167.089844 102.382812 C 169.519531 102.382812 171.488281 104.359375 171.488281 106.792969 C 171.488281 109.230469 169.519531 111.203125 167.089844 111.203125 C 164.65625 111.203125 162.6875 109.230469 162.6875 106.792969 Z M 193.449219 124.917969 C 191.300781 121.679688 186.964844 120.761719 183.695312 122.839844 C 180.480469 124.886719 179.4375 129.222656 181.375 132.511719 C 182.039062 133.636719 182.960938 134.503906 184.011719 135.097656 L 183.058594 139.714844 L 169.339844 148.738281 L 169.339844 113.570312 C 172.347656 112.566406 174.46875 109.613281 174.191406 106.199219 C 173.921875 102.835938 171.25 100.066406 167.902344 99.695312 C 163.601562 99.214844 159.957031 102.578125 159.957031 106.792969 C 159.957031 110.070312 162.160156 112.824219 165.160156 113.667969 L 165.160156 154.339844 L 179.09375 168.304688 L 179.09375 212.609375 C 179.09375 213.765625 180.027344 214.707031 181.183594 214.707031 C 182.339844 214.707031 183.273438 213.765625 183.273438 212.609375 L 183.273438 166.566406 L 170.035156 153.296875 L 186.800781 142.265625 L 188.097656 135.996094 C 189.320312 135.898438 190.535156 135.480469 191.613281 134.71875 C 194.742188 132.515625 195.566406 128.109375 193.449219 124.917969 " fill-opacity="1" fill-rule="nonzero"/></g><g clip-path="url(#id4)"><path fill="#95bda6" d="M 146.621094 124.007812 C 146.621094 121.574219 148.589844 119.597656 151.019531 119.597656 C 153.449219 119.597656 155.421875 121.574219 155.421875 124.007812 C 155.421875 126.441406 153.449219 128.417969 151.019531 128.417969 C 148.589844 128.417969 146.621094 126.441406 146.621094 124.007812 Z M 146.621094 168.789062 C 144.191406 168.789062 142.222656 166.8125 142.222656 164.378906 C 142.222656 161.941406 144.191406 159.96875 146.621094 159.96875 C 149.050781 159.96875 151.019531 161.941406 151.019531 164.378906 C 151.019531 166.8125 149.050781 168.789062 146.621094 168.789062 Z M 126.136719 157.230469 C 123.707031 157.230469 121.738281 155.257812 121.738281 152.820312 C 121.738281 150.386719 123.707031 148.414062 126.136719 148.414062 C 128.566406 148.414062 130.535156 150.386719 130.535156 152.820312 C 130.535156 155.257812 128.566406 157.230469 126.136719 157.230469 Z M 153.070312 130.851562 C 156.167969 129.917969 158.378906 126.9375 158.128906 123.476562 C 157.882812 120.085938 155.203125 117.28125 151.835938 116.90625 C 147.53125 116.429688 143.890625 119.792969 143.890625 124.007812 C 143.890625 127.210938 145.992188 129.917969 148.890625 130.828125 L 148.890625 150.367188 L 132.824219 150.367188 C 131.753906 147.4375 128.835938 145.40625 125.480469 145.707031 C 122.152344 146.003906 119.425781 148.667969 119.054688 152 C 118.574219 156.316406 121.929688 159.96875 126.136719 159.96875 C 129.476562 159.96875 132.269531 157.664062 133.046875 154.558594 L 150.113281 154.558594 L 166.507812 170.988281 L 156.277344 170.988281 L 152.953125 167.652344 C 153.507812 166.578125 153.804688 165.347656 153.742188 164.039062 C 153.5625 160.226562 150.316406 157.175781 146.507812 157.230469 C 142.636719 157.292969 139.515625 160.445312 139.492188 164.332031 C 139.46875 168.164062 142.566406 171.398438 146.390625 171.519531 C 147.710938 171.5625 148.953125 171.242188 150.03125 170.652344 L 154.546875 175.179688 L 169.464844 175.179688 L 169.464844 212.609375 C 169.464844 213.765625 170.402344 214.707031 171.554688 214.707031 C 172.710938 214.707031 173.648438 213.765625 173.648438 212.609375 L 173.648438 172.21875 L 153.070312 151.59375 L 153.070312 130.851562 " fill-opacity="1" fill-rule="nonzero"/></g><g fill="#011c43" fill-opacity="1"><g transform="translate(150.180588, 247.543431)"><g><path d="M 14.527344 -1.246094 C 13.773438 -2.289062 13.394531 -4.667969 13.25 -7.21875 C 13.046875 -10.84375 13.105469 -15.136719 12.902344 -16.789062 C 12.671875 -19.863281 8.378906 -18.671875 8.148438 -17.746094 C 8.117188 -17.714844 8.117188 -17.65625 8.117188 -17.542969 C 8.117188 -16.699219 5.539062 -13.105469 2.988281 -9.65625 C 2.320312 -9.945312 1.855469 -10.148438 1.566406 -10.234375 C 0.929688 -10.320312 0.261719 -9.945312 -0.0859375 -9.25 C -0.753906 -8.03125 -0.667969 -6.8125 -0.40625 -6.464844 C -0.0859375 -6.496094 0.230469 -6.496094 0.636719 -6.464844 C -0.667969 -4.667969 -1.652344 -3.21875 -1.882812 -2.667969 C -2.03125 -2 -1.941406 -1.421875 -1.246094 -0.839844 C -0.117188 0.0273438 2.058594 0.0859375 2.144531 -0.203125 C 2.203125 -1.390625 3.21875 -3.390625 4.523438 -5.449219 C 4.871094 -5.363281 5.101562 -5.132812 5.449219 -5.046875 C 8.03125 -3.886719 8.726562 -3.101562 9.65625 -2.582031 C 9.683594 -1.625 9.742188 -0.929688 9.886719 -0.667969 C 10.121094 0 10.582031 0.40625 11.480469 0.40625 C 12.902344 0.40625 14.699219 -0.984375 14.527344 -1.246094 Z M 6.203125 -7.800781 C 7.335938 -9.566406 8.496094 -11.308594 9.367188 -12.699219 C 9.597656 -10.582031 9.597656 -8.117188 9.625 -6.03125 C 8.496094 -6.496094 7.308594 -7.160156 6.203125 -7.800781 Z M 6.203125 -7.800781 "/></g></g></g><g fill="#011c43" fill-opacity="1"><g transform="translate(170.301832, 247.543431)"><g><path d="M 8.089844 -4.261719 C 7.160156 -2.929688 5.074219 -2.785156 2.957031 -2.988281 C 3.074219 -4.089844 3.539062 -5.421875 3.914062 -6.640625 C 4.988281 -10.234375 6.320312 -13.917969 6.8125 -15.484375 C 7.710938 -18.875 2.261719 -18.933594 2.636719 -17.804688 C 3.21875 -16.351562 -1.101562 -4.726562 -1.535156 -1.882812 C -1.535156 -1.882812 -1.535156 -1.855469 -1.535156 -1.796875 C -1.566406 -1.652344 -1.566406 -1.566406 -1.566406 -1.449219 C -1.566406 -1.074219 -1.421875 -0.695312 -1.1875 -0.433594 C -0.871094 -0.0585938 -0.433594 0.0859375 0.0273438 0 C 3.042969 -0.695312 6.058594 0.230469 7.335938 0.0859375 C 10.757812 -0.230469 8.929688 -5.015625 8.089844 -4.261719 Z M 8.089844 -4.261719 "/></g></g></g><g fill="#011c43" fill-opacity="1"><g transform="translate(185.204491, 247.543431)"><g><path d="M 15.394531 -18.613281 C 13.628906 -17.773438 10.699219 -10.757812 8.378906 -7.21875 C 7.65625 -9.597656 7.742188 -14.265625 6.902344 -16.644531 C 6.496094 -18.933594 2.289062 -18.789062 2.667969 -17.804688 C 3.246094 -16.296875 -1.59375 -3.101562 -1.566406 -1.277344 C -1.535156 -0.636719 -1.246094 -0.0585938 -0.40625 0.230469 C 0.929688 0.726562 3.074219 0.0585938 2.988281 -0.261719 C 2.636719 -1.535156 3.1875 -4.144531 3.972656 -6.640625 C 4.203125 -7.453125 4.378906 -8.261719 4.695312 -9.046875 C 4.957031 -6.058594 5.304688 -2.753906 6.726562 -2.203125 C 7.25 -1.941406 7.828125 -2 8.582031 -2.695312 C 9.394531 -3.480469 11.65625 -7.800781 13.570312 -11.222656 C 12.351562 -7.21875 10.84375 -2.753906 10.84375 -1.683594 C 10.929688 -1.074219 11.222656 -0.523438 12.03125 -0.203125 C 13.394531 0.320312 15.484375 -0.40625 15.425781 -0.695312 C 15.078125 -1.941406 15.542969 -4.261719 16.324219 -6.726562 C 17.425781 -10.292969 18.875 -14.238281 19.3125 -15.859375 C 20.09375 -18.671875 16.351562 -19.136719 15.394531 -18.613281 Z M 15.394531 -18.613281 "/></g></g></g><g fill="#011c43" fill-opacity="1"><g transform="translate(207.181237, 247.543431)"><g><path d="M 14.527344 -1.246094 C 13.773438 -2.289062 13.394531 -4.667969 13.25 -7.21875 C 13.046875 -10.84375 13.105469 -15.136719 12.902344 -16.789062 C 12.671875 -19.863281 8.378906 -18.671875 8.148438 -17.746094 C 8.117188 -17.714844 8.117188 -17.65625 8.117188 -17.542969 C 8.117188 -16.699219 5.539062 -13.105469 2.988281 -9.65625 C 2.320312 -9.945312 1.855469 -10.148438 1.566406 -10.234375 C 0.929688 -10.320312 0.261719 -9.945312 -0.0859375 -9.25 C -0.753906 -8.03125 -0.667969 -6.8125 -0.40625 -6.464844 C -0.0859375 -6.496094 0.230469 -6.496094 0.636719 -6.464844 C -0.667969 -4.667969 -1.652344 -3.21875 -1.882812 -2.667969 C -2.03125 -2 -1.941406 -1.421875 -1.246094 -0.839844 C -0.117188 0.0273438 2.058594 0.0859375 2.144531 -0.203125 C 2.203125 -1.390625 3.21875 -3.390625 4.523438 -5.449219 C 4.871094 -5.363281 5.101562 -5.132812 5.449219 -5.046875 C 8.03125 -3.886719 8.726562 -3.101562 9.65625 -2.582031 C 9.683594 -1.625 9.742188 -0.929688 9.886719 -0.667969 C 10.121094 0 10.582031 0.40625 11.480469 0.40625 C 12.902344 0.40625 14.699219 -0.984375 14.527344 -1.246094 Z M 6.203125 -7.800781 C 7.335938 -9.566406 8.496094 -11.308594 9.367188 -12.699219 C 9.597656 -10.582031 9.597656 -8.117188 9.625 -6.03125 C 8.496094 -6.496094 7.308594 -7.160156 6.203125 -7.800781 Z M 6.203125 -7.800781 "/></g></g></g></svg>