<svg xmlns="http://www.w3.org/2000/svg" xmlns:xlink="http://www.w3.org/1999/xlink" width="500" zoomAndPan="magnify" viewBox="0 0 375 374.999991" height="500" preserveAspectRatio="xMidYMid meet" version="1.0"><defs><g/><clipPath id="id1"><path d="M 65 173 L 125 173 L 125 262.5 L 65 262.5 Z M 65 173 " clip-rule="nonzero"/></clipPath><clipPath id="id2"><path d="M 91 112.5 L 123 112.5 L 123 223 L 91 223 Z M 91 112.5 " clip-rule="nonzero"/></clipPath></defs><rect x="-37.5" width="450" fill="#ffffff" y="-37.499999" height="449.999989" fill-opacity="1"/><rect x="-37.5" width="450" fill="#ffffff" y="-37.499999" height="449.999989" fill-opacity="1"/><rect x="-37.5" width="450" fill="#ffffff" y="-37.499999" height="449.999989" fill-opacity="1"/><rect x="-37.5" width="450" fill="#ffffff" y="-37.499999" height="449.999989" fill-opacity="1"/><g clip-path="url(#id1)"><path fill="#084b45" d="M 76.859375 173.722656 C 73.148438 200.488281 93.816406 210.878906 113.488281 225.714844 C 133.15625 240.546875 119.785156 262.496094 119.785156 262.496094 C 127.429688 237.636719 102.316406 236.828125 76.671875 216.882812 C 51.027344 196.9375 76.859375 173.722656 76.859375 173.722656 " fill-opacity="1" fill-rule="nonzero"/></g><path fill="#076666" d="M 76.070312 126.746094 C 76.070312 126.746094 114.210938 132.367188 97.332031 175.902344 C 97.332031 175.902344 87.429688 199.265625 108.757812 218.714844 C 108.757812 218.714844 72.570312 196.824219 81.304688 170.949219 C 90.042969 145.078125 86.199219 134.105469 76.070312 126.746094 " fill-opacity="1" fill-rule="nonzero"/><g clip-path="url(#id2)"><path fill="#5caaab" d="M 115.132812 222.554688 C 115.132812 222.554688 93.765625 201.574219 99.597656 181.894531 C 107.824219 154.140625 110.703125 138.550781 91.640625 112.5 C 91.640625 112.5 141.730469 141.882812 114.445312 197.589844 C 114.445312 197.589844 107.285156 212.769531 115.132812 222.554688 " fill-opacity="1" fill-rule="nonzero"/></g><g fill="#084b45" fill-opacity="1"><g transform="translate(132.888512, 205.846026)"><g><path d="M 2.53125 0 L 0.203125 0 L 6.609375 -16.1875 L 8.890625 -16.1875 L 15.21875 0 L 12.890625 0 L 11.421875 -3.90625 L 4 -3.90625 Z M 7.703125 -14.171875 C 7.523438 -13.578125 7.316406 -12.941406 7.078125 -12.265625 C 6.847656 -11.597656 6.613281 -10.925781 6.375 -10.25 L 4.71875 -5.84375 L 10.6875 -5.84375 L 9.046875 -10.25 C 8.691406 -11.195312 8.414062 -11.960938 8.21875 -12.546875 C 8.019531 -13.140625 7.847656 -13.679688 7.703125 -14.171875 Z M 7.703125 -14.171875 "/></g></g></g><g fill="#084b45" fill-opacity="1"><g transform="translate(149.928078, 205.846026)"><g><path d="M 11.78125 -2.0625 L 11.78125 0 L 1.859375 0 L 1.859375 -16.1875 L 4.0625 -16.1875 L 4.0625 -2.0625 Z M 11.78125 -2.0625 "/></g></g></g><g fill="#084b45" fill-opacity="1"><g transform="translate(163.714776, 205.846026)"><g><path d="M 17.125 -16.1875 L 17.125 0 L 15.0625 0 L 15.0625 -12.765625 L 10.4375 -3.234375 L 8.546875 -3.234375 L 3.921875 -12.78125 L 3.921875 0 L 1.859375 0 L 1.859375 -16.1875 L 4.625 -16.1875 L 9.53125 -5.890625 L 14.46875 -16.1875 Z M 17.125 -16.1875 "/></g></g></g><g fill="#084b45" fill-opacity="1"><g transform="translate(184.291197, 205.846026)"><g><path d="M 2.53125 0 L 0.203125 0 L 6.609375 -16.1875 L 8.890625 -16.1875 L 15.21875 0 L 12.890625 0 L 11.421875 -3.90625 L 4 -3.90625 Z M 7.703125 -14.171875 C 7.523438 -13.578125 7.316406 -12.941406 7.078125 -12.265625 C 6.847656 -11.597656 6.613281 -10.925781 6.375 -10.25 L 4.71875 -5.84375 L 10.6875 -5.84375 L 9.046875 -10.25 C 8.691406 -11.195312 8.414062 -11.960938 8.21875 -12.546875 C 8.019531 -13.140625 7.847656 -13.679688 7.703125 -14.171875 Z M 7.703125 -14.171875 "/></g></g></g></svg>